<?xml version="1.0" encoding="UTF-8" standalone="no"?>
<!-- Created with Inkscape (http://www.inkscape.org/) -->

<svg
   xmlns:dc="http://purl.org/dc/elements/1.1/"
   xmlns:cc="http://creativecommons.org/ns#"
   xmlns:rdf="http://www.w3.org/1999/02/22-rdf-syntax-ns#"
   xmlns:svg="http://www.w3.org/2000/svg"
   xmlns="http://www.w3.org/2000/svg"
   xmlns:sodipodi="http://sodipodi.sourceforge.net/DTD/sodipodi-0.dtd"
   xmlns:inkscape="http://www.inkscape.org/namespaces/inkscape"
   width="110mm"
   height="110mm"
   viewBox="0 0 389.76378 389.76377"
   id="svg2"
   version="1.1"
   inkscape:version="0.91 r13725"
   sodipodi:docname="icon.svg"
   inkscape:export-filename="/home/fabrice/qtcarto-application/alpha-ursae-minoris/application-icons/icon-256.png"
   inkscape:export-xdpi="59.112724"
   inkscape:export-ydpi="59.112724">
  <defs
     id="defs4" />
  <sodipodi:namedview
     id="base"
     pagecolor="#ffffff"
     bordercolor="#666666"
     borderopacity="1.0"
     inkscape:pageopacity="0"
     inkscape:pageshadow="2"
     inkscape:zoom="2.0371313"
     inkscape:cx="194.88189"
     inkscape:cy="194.88189"
     inkscape:document-units="mm"
     inkscape:current-layer="layer2"
     showgrid="true"
     inkscape:window-width="1920"
     inkscape:window-height="1013"
     inkscape:window-x="0"
     inkscape:window-y="0"
     inkscape:window-maximized="1"
     objecttolerance="10000"
     guidetolerance="10000"
     borderlayer="true">
    <inkscape:grid
       type="xygrid"
       id="grid4251"
       units="mm"
       spacingx="3.543307"
       spacingy="3.5433069"
       empspacing="1"
       dotted="false" />
  </sodipodi:namedview>
  <metadata
     id="metadata7">
    <rdf:RDF>
      <cc:Work
         rdf:about="">
        <dc:format>image/svg+xml</dc:format>
        <dc:type
           rdf:resource="http://purl.org/dc/dcmitype/StillImage" />
        <dc:title></dc:title>
      </cc:Work>
    </rdf:RDF>
  </metadata>
  <g
     inkscape:label="Layer 1"
     inkscape:groupmode="layer"
     id="layer1"
     transform="translate(0,-662.59843)"
     style="display:none">
    <path
       style="fill:none;fill-rule:evenodd;stroke:#0007ff;stroke-width:1.03795016px;stroke-linecap:butt;stroke-linejoin:miter;stroke-opacity:1"
       d="m 17.716538,1034.0986 354.330702,0"
       id="path4146"
       inkscape:connector-curvature="0" />
    <path
       style="fill:none;fill-rule:evenodd;stroke:#0007ff;stroke-width:1.03795016px;stroke-linecap:butt;stroke-linejoin:miter;stroke-opacity:1"
       d="m 17.716537,679.79598 354.330703,0"
       id="path4146-1"
       inkscape:connector-curvature="0" />
    <path
       style="fill:none;fill-rule:evenodd;stroke:#0007ff;stroke-width:1.05675769px;stroke-linecap:butt;stroke-linejoin:miter;stroke-opacity:1"
       d="m 194.88189,680.31499 0,354.33071"
       id="path4163"
       inkscape:connector-curvature="0" />
    <path
       style="fill:none;fill-rule:evenodd;stroke:#0007ff;stroke-width:1.03795016px;stroke-linecap:butt;stroke-linejoin:miter;stroke-opacity:1"
       d="m 17.71654,750.66212 354.3307,0"
       id="path4146-1-5"
       inkscape:connector-curvature="0" />
    <path
       style="fill:none;fill-rule:evenodd;stroke:#0007ff;stroke-width:1.03795016px;stroke-linecap:butt;stroke-linejoin:miter;stroke-opacity:1"
       d="m 17.71654,892.3944 354.3307,0"
       id="path4146-1-58"
       inkscape:connector-curvature="0" />
    <path
       style="fill:none;fill-rule:evenodd;stroke:#0007ff;stroke-width:1.03795016px;stroke-linecap:butt;stroke-linejoin:miter;stroke-opacity:1"
       d="m 17.71654,821.52826 354.3307,0"
       id="path4146-1-2"
       inkscape:connector-curvature="0" />
    <path
       style="fill:none;fill-rule:evenodd;stroke:#0007ff;stroke-width:1.03795016px;stroke-linecap:butt;stroke-linejoin:miter;stroke-opacity:1"
       d="m 17.716542,963.26054 354.330698,0"
       id="path4146-1-9"
       inkscape:connector-curvature="0" />
    <path
       style="fill:none;fill-rule:evenodd;stroke:#0007ff;stroke-width:1.05675769px;stroke-linecap:butt;stroke-linejoin:miter;stroke-opacity:1"
       d="m 18.244914,680.31497 0,354.33073"
       id="path4163-5"
       inkscape:connector-curvature="0" />
    <path
       style="fill:none;fill-rule:evenodd;stroke:#0007ff;stroke-width:1.05675769px;stroke-linecap:butt;stroke-linejoin:miter;stroke-opacity:1"
       d="m 106.82759,680.31497 0,354.33073"
       id="path4163-8"
       inkscape:connector-curvature="0" />
    <path
       style="fill:none;fill-rule:evenodd;stroke:#0007ff;stroke-width:1.05675769px;stroke-linecap:butt;stroke-linejoin:miter;stroke-opacity:1"
       d="m 283.99295,680.31497 0,354.33073"
       id="path4163-3"
       inkscape:connector-curvature="0" />
    <path
       style="fill:none;fill-rule:evenodd;stroke:#0007ff;stroke-width:1.05675769px;stroke-linecap:butt;stroke-linejoin:miter;stroke-opacity:1"
       d="m 372.57562,680.31497 0,354.33073"
       id="path4163-0"
       inkscape:connector-curvature="0" />
  </g>
  <g
     inkscape:groupmode="layer"
     id="layer2"
     inkscape:label="Layer 2"
     style="display:inline">
    <rect
       style="fill:#ffffff;fill-opacity:1;stroke:none;stroke-width:1.41732287;stroke-linecap:square;stroke-linejoin:miter;stroke-miterlimit:14.30000019;stroke-dasharray:none;stroke-opacity:1"
       id="rect4180"
       width="389.76379"
       height="389.76382"
       x="0"
       y="-1.8676541e-05"
       ry="70.866142"
       inkscape:export-xdpi="118.22544"
       inkscape:export-ydpi="118.22544" />
    <path
       style="fill:none;fill-rule:evenodd;stroke:#000000;stroke-width:7.37716532;stroke-linecap:square;stroke-linejoin:miter;stroke-miterlimit:4;stroke-dasharray:none;stroke-opacity:1"
       d="m 104.82655,106.25458 c 0,0 -6.165565,85.93902 12.80768,138.65309 10.95702,30.44231 39.85002,47.03371 57.93996,52.91616 8.501,2.76433 16.18307,2.82254 16.18307,2.82254"
       id="path4255"
       inkscape:connector-curvature="0"
       sodipodi:nodetypes="cssc" />
    <path
       style="fill:none;fill-rule:evenodd;stroke:#000000;stroke-width:6.66850376;stroke-linecap:butt;stroke-linejoin:miter;stroke-miterlimit:4;stroke-dasharray:none;stroke-opacity:1"
       d="m 106.29921,159.44881 88.58268,0"
       id="path4257"
       inkscape:connector-curvature="0" />
    <path
       style="fill:none;fill-rule:evenodd;stroke:#000000;stroke-width:6.66850376;stroke-linecap:butt;stroke-linejoin:miter;stroke-miterlimit:4;stroke-dasharray:none;stroke-opacity:1"
       d="m 112.18985,230.80584 82.69204,-0.49089"
       id="path4259"
       inkscape:connector-curvature="0"
       sodipodi:nodetypes="cc" />
    <circle
       style="fill:#000000;fill-opacity:1;stroke:#000000;stroke-width:2.76224279;stroke-linecap:round;stroke-miterlimit:4;stroke-dasharray:none;stroke-opacity:1"
       id="path4272"
       cx="160.60947"
       cy="176.62947"
       r="6.3822627" />
    <path
       style="fill:#000000;fill-opacity:1;fill-rule:evenodd;stroke:#000000;stroke-width:6.66850376;stroke-linecap:butt;stroke-linejoin:miter;stroke-miterlimit:4;stroke-dasharray:none;stroke-opacity:1"
       d="m 181.11899,159.44881 c 0,0 4.46011,29.64377 -4.09525,35.17188 -11.57366,7.47841 -31.33782,3.8045 -25.25407,12.74079 13.12093,19.27303 39.97924,22.95347 39.97924,22.95347 l 0,0 0,-35.92897 0,-34.93716 z"
       id="path4280"
       inkscape:connector-curvature="0"
       sodipodi:nodetypes="cssccccc" />
    <path
       style="fill:#000000;fill-opacity:1;fill-rule:evenodd;stroke:#000000;stroke-width:6.65787411;stroke-linecap:butt;stroke-linejoin:miter;stroke-miterlimit:4;stroke-dasharray:none;stroke-opacity:1"
       d="m 191.93305,283.67786 c -18.16277,-0.0651 -31.52121,-10.73786 -27.50304,-20.97576 4.01817,-10.2379 18.1914,-6.69459 23.18265,-11.26202 4.99125,-4.56743 2.39183,-10.19873 4.11998,-19.01349 z"
       id="path4282"
       inkscape:connector-curvature="0"
       sodipodi:nodetypes="czzcc" />
    <path
       style="fill:none;fill-rule:evenodd;stroke:#000000;stroke-width:7.02283478;stroke-linecap:butt;stroke-linejoin:miter;stroke-miterlimit:4;stroke-dasharray:none;stroke-opacity:1"
       d="m 140.55667,275.52011 29.68096,-18.66987"
       id="path4284"
       inkscape:connector-curvature="0"
       sodipodi:nodetypes="cc" />
    <path
       style="fill:none;fill-rule:evenodd;stroke:#000000;stroke-width:6.66850376;stroke-linecap:round;stroke-linejoin:miter;stroke-miterlimit:4;stroke-dasharray:none;stroke-opacity:1"
       d="m 53.705634,49.749762 c 0,0 11.855822,24.179307 22.337804,36.756621 10.481981,12.577313 27.786352,21.688747 27.786352,21.688747"
       id="path4290"
       inkscape:connector-curvature="0"
       sodipodi:nodetypes="czc" />
    <path
       style="fill:none;fill-rule:evenodd;stroke:#000000;stroke-width:6.66850376;stroke-linecap:round;stroke-linejoin:miter;stroke-miterlimit:4;stroke-dasharray:none;stroke-opacity:1"
       d="m 75.589838,42.682277 c 0,0 5.589612,23.197813 11.06288,36.320758 5.473267,13.122946 17.761042,28.106875 17.761042,28.106875"
       id="path4290-3"
       inkscape:connector-curvature="0"
       sodipodi:nodetypes="czc" />
    <path
       style="fill:none;fill-rule:evenodd;stroke:#000000;stroke-width:6.66850376;stroke-linecap:round;stroke-linejoin:miter;stroke-miterlimit:4;stroke-dasharray:none;stroke-opacity:1"
       d="m 97.014243,39.319058 c 0,0 -0.454891,18.198246 2.07051,35.614723 2.525397,17.416477 5.855757,33.106609 5.855757,33.106609"
       id="path4290-5"
       inkscape:connector-curvature="0"
       sodipodi:nodetypes="czc" />
    <path
       style="fill:none;fill-rule:evenodd;stroke:#000000;stroke-width:6.66850376;stroke-linecap:round;stroke-linejoin:miter;stroke-miterlimit:4;stroke-dasharray:none;stroke-opacity:1"
       d="m 123.77432,39.504239 c 0,0 -4.23094,18.824727 -8.07335,34.248144 -3.84242,15.423417 -11.8159,34.565307 -11.8159,34.565307"
       id="path4290-38"
       inkscape:connector-curvature="0"
       sodipodi:nodetypes="czc" />
    <path
       style="fill:none;fill-rule:evenodd;stroke:#000000;stroke-width:6.66850376;stroke-linecap:round;stroke-linejoin:miter;stroke-miterlimit:4;stroke-dasharray:none;stroke-opacity:1"
       d="m 138.55638,52.692345 c 0,0 -5.05017,17.613454 -11.89071,32.03694 -6.84053,14.423486 -19.93908,22.746095 -19.93908,22.746095"
       id="path4290-31"
       inkscape:connector-curvature="0"
       sodipodi:nodetypes="czc" />
    <path
       style="display:inline;fill:#000000;fill-opacity:1;fill-rule:evenodd;stroke:#000000;stroke-width:1px;stroke-linecap:butt;stroke-linejoin:miter;stroke-opacity:1"
       d="m 18.421451,131.41395 63.533763,0.15976 3.892801,-21.41742 -64.102581,7.55161 z"
       id="path4286"
       inkscape:connector-curvature="0"
       sodipodi:nodetypes="ccccc" />
    <path
       transform="translate(0,-662.59843)"
       style="display:inline;fill:#000000;fill-opacity:1;fill-rule:evenodd;stroke:#000000;stroke-width:1.14803147;stroke-linecap:round;stroke-linejoin:miter;stroke-miterlimit:12.60000038;stroke-dasharray:none;stroke-opacity:1"
       d="m 124.68961,928.23871 -0.11564,81.44919 70.24256,-10e-5 0,-45.86852 -33.38971,-8.21777 z"
       id="path4288"
       inkscape:connector-curvature="0"
       sodipodi:nodetypes="cccccc" />
    <g
       id="g4322"
       transform="translate(-53.722304,-124.00754)">
      <path
         sodipodi:nodetypes="cssc"
         inkscape:connector-curvature="0"
         id="path4255-5"
         d="m 338.74819,230.27033 c 0,0 6.16556,85.93902 -12.80768,138.65309 -10.95703,30.44231 -39.85003,47.03371 -57.93997,52.91616 -8.501,2.76433 -16.18307,2.82254 -16.18307,2.82254"
         style="display:inline;fill:none;fill-rule:evenodd;stroke:#000000;stroke-width:7.37716532;stroke-linecap:square;stroke-linejoin:miter;stroke-miterlimit:4;stroke-dasharray:none;stroke-opacity:1" />
      <path
         inkscape:connector-curvature="0"
         id="path4257-6"
         d="m 337.27553,283.46456 -88.58269,0"
         style="display:inline;fill:none;fill-rule:evenodd;stroke:#000000;stroke-width:6.66850376;stroke-linecap:butt;stroke-linejoin:miter;stroke-miterlimit:4;stroke-dasharray:none;stroke-opacity:1" />
      <path
         sodipodi:nodetypes="cc"
         inkscape:connector-curvature="0"
         id="path4259-1"
         d="M 331.38489,354.82159 248.69284,354.3307"
         style="display:inline;fill:none;fill-rule:evenodd;stroke:#000000;stroke-width:6.66850376;stroke-linecap:butt;stroke-linejoin:miter;stroke-miterlimit:4;stroke-dasharray:none;stroke-opacity:1" />
      <circle
         transform="scale(-1,1)"
         r="6.3822627"
         cy="300.64523"
         cx="-282.96527"
         id="path4272-0"
         style="display:inline;fill:#000000;fill-opacity:1;stroke:#000000;stroke-width:2.76224279;stroke-linecap:round;stroke-miterlimit:4;stroke-dasharray:none;stroke-opacity:1" />
      <path
         sodipodi:nodetypes="cssccccc"
         inkscape:connector-curvature="0"
         id="path4280-7"
         d="m 262.45574,283.46456 c 0,0 -4.46011,29.64377 4.09525,35.17188 11.57366,7.47841 31.33782,3.8045 25.25407,12.74079 -13.12093,19.27303 -39.97924,22.95347 -39.97924,22.95347 l 0,0 0,-35.92897 0,-34.93716 z"
         style="display:inline;fill:#000000;fill-opacity:1;fill-rule:evenodd;stroke:#000000;stroke-width:6.66850376;stroke-linecap:butt;stroke-linejoin:miter;stroke-miterlimit:4;stroke-dasharray:none;stroke-opacity:1" />
      <path
         sodipodi:nodetypes="czzcc"
         inkscape:connector-curvature="0"
         id="path4282-3"
         d="m 251.64168,407.69361 c 18.16277,-0.0651 31.52121,-10.73786 27.50304,-20.97576 -4.01817,-10.2379 -18.1914,-6.69459 -23.18265,-11.26202 -4.99125,-4.56743 -2.39183,-10.19873 -4.11998,-19.01349 z"
         style="display:inline;fill:#000000;fill-opacity:1;fill-rule:evenodd;stroke:#000000;stroke-width:6.65787411;stroke-linecap:butt;stroke-linejoin:miter;stroke-miterlimit:4;stroke-dasharray:none;stroke-opacity:1" />
      <path
         sodipodi:nodetypes="cc"
         inkscape:connector-curvature="0"
         id="path4284-7"
         d="M 303.01806,399.53586 273.3371,380.86599"
         style="display:inline;fill:none;fill-rule:evenodd;stroke:#000000;stroke-width:7.02283478;stroke-linecap:butt;stroke-linejoin:miter;stroke-miterlimit:4;stroke-dasharray:none;stroke-opacity:1" />
      <path
         sodipodi:nodetypes="czc"
         inkscape:connector-curvature="0"
         id="path4290-1"
         d="m 389.8691,173.76551 c 0,0 -11.85582,24.17931 -22.3378,36.75662 -10.48198,12.57732 -27.78635,21.68875 -27.78635,21.68875"
         style="display:inline;fill:none;fill-rule:evenodd;stroke:#000000;stroke-width:6.66850376;stroke-linecap:round;stroke-linejoin:miter;stroke-miterlimit:4;stroke-dasharray:none;stroke-opacity:1" />
      <path
         sodipodi:nodetypes="czc"
         inkscape:connector-curvature="0"
         id="path4290-3-5"
         d="m 367.9849,166.69803 c 0,0 -5.58961,23.19781 -11.06288,36.32076 -5.47327,13.12294 -17.76104,28.10687 -17.76104,28.10687"
         style="display:inline;fill:none;fill-rule:evenodd;stroke:#000000;stroke-width:6.66850376;stroke-linecap:round;stroke-linejoin:miter;stroke-miterlimit:4;stroke-dasharray:none;stroke-opacity:1" />
      <path
         sodipodi:nodetypes="czc"
         inkscape:connector-curvature="0"
         id="path4290-5-9"
         d="m 346.56049,163.33481 c 0,0 0.45489,18.19824 -2.07051,35.61472 -2.52539,17.41648 -5.85575,33.10661 -5.85575,33.10661"
         style="display:inline;fill:none;fill-rule:evenodd;stroke:#000000;stroke-width:6.66850376;stroke-linecap:round;stroke-linejoin:miter;stroke-miterlimit:4;stroke-dasharray:none;stroke-opacity:1" />
      <path
         sodipodi:nodetypes="czc"
         inkscape:connector-curvature="0"
         id="path4290-38-6"
         d="m 319.80041,163.51999 c 0,0 4.23094,18.82473 8.07336,34.24814 3.84242,15.42342 11.8159,34.56531 11.8159,34.56531"
         style="display:inline;fill:none;fill-rule:evenodd;stroke:#000000;stroke-width:6.66850376;stroke-linecap:round;stroke-linejoin:miter;stroke-miterlimit:4;stroke-dasharray:none;stroke-opacity:1" />
      <path
         sodipodi:nodetypes="czc"
         inkscape:connector-curvature="0"
         id="path4290-31-6"
         d="m 305.01835,176.7081 c 0,0 5.05017,17.61345 11.89071,32.03694 6.84053,14.42348 19.93909,22.74609 19.93909,22.74609"
         style="display:inline;fill:none;fill-rule:evenodd;stroke:#000000;stroke-width:6.66850376;stroke-linecap:round;stroke-linejoin:miter;stroke-miterlimit:4;stroke-dasharray:none;stroke-opacity:1" />
      <path
         sodipodi:nodetypes="ccccc"
         inkscape:connector-curvature="0"
         id="path4286-3"
         d="m 425.15329,255.4297 -63.53377,0.15976 -3.8928,-21.41742 64.10258,7.55161 z"
         style="display:inline;fill:#000000;fill-opacity:1;fill-rule:evenodd;stroke:#000000;stroke-width:1px;stroke-linecap:butt;stroke-linejoin:miter;stroke-opacity:1" />
      <path
         sodipodi:nodetypes="cccccc"
         inkscape:connector-curvature="0"
         id="path4288-1"
         d="m 318.88512,389.65603 0.11564,81.44919 -70.24256,-10e-5 0,-45.86852 33.38971,-8.21777 z"
         style="display:inline;fill:#000000;fill-opacity:1;fill-rule:evenodd;stroke:#000000;stroke-width:1.14803147;stroke-linecap:round;stroke-linejoin:miter;stroke-miterlimit:12.60000038;stroke-dasharray:none;stroke-opacity:1" />
    </g>
    <path
       style="fill:#f64a4a;fill-opacity:1;stroke:#000000;stroke-width:1.41732283;stroke-linecap:square;stroke-linejoin:miter;stroke-miterlimit:12.60000038;stroke-dasharray:none;stroke-opacity:1"
       d="m 116.24801,226.32316 c -0.14101,-0.47248 -0.90985,-4.06208 -1.70852,-7.9769 -2.7307,-13.385 -5.01031,-32.29484 -5.84376,-48.47503 l -0.36032,-6.99513 34.72247,0 34.72246,0 0.34831,1.34994 c 0.61486,2.38294 0.45178,18.33965 -0.21642,21.17674 -1.6283,6.91351 -3.78103,8.20697 -18.52142,11.12851 -9.13643,1.81084 -12.1606,3.80526 -12.1606,8.01985 0,4.87223 8.10691,13.85656 17.7128,19.62987 l 3.94438,2.37064 -4.01197,0.31234 c -2.20657,0.17179 -13.99274,0.31366 -26.19148,0.31528 -20.69991,0.003 -22.19664,-0.0544 -22.43593,-0.85611 z m 48.29512,-42.8877 c 3.67381,-2.0648 4.99824,-6.98753 2.88943,-10.73965 -2.90208,-5.16356 -10.727,-5.16356 -13.62908,0 -3.90339,6.94514 3.7945,14.64304 10.73965,10.73965 z"
       id="path4338"
       inkscape:connector-curvature="0"
       transform="translate(0,-1.5258789e-5)" />
    <path
       style="fill:#f64a4a;fill-opacity:1;stroke:#000000;stroke-width:1.41732283;stroke-linecap:square;stroke-linejoin:miter;stroke-miterlimit:12.60000038;stroke-dasharray:none;stroke-opacity:1"
       d="m 137.10068,268.92559 c -7.66379,-7.9686 -13.14937,-17.27565 -16.93192,-28.72735 l -1.89041,-5.72322 13.07919,-0.21139 c 7.19355,-0.11626 22.88252,-0.23341 34.86438,-0.26033 l 21.7852,-0.0489 -0.16437,1.30166 c -0.0904,0.71591 -0.25512,3.17605 -0.36603,5.46697 -0.24996,5.16284 -0.55286,6.33535 -1.98764,7.69419 -1.34692,1.27562 -2.11713,1.53012 -8.2269,2.71838 -5.35715,1.04189 -7.88124,1.85496 -10.08981,3.25018 -18.80653,11.88064 -27.106,17.0564 -27.35039,17.0564 -0.16556,0 -1.39014,-1.13244 -2.7213,-2.51654 z"
       id="path4340"
       inkscape:connector-curvature="0"
       transform="translate(0,-1.5258789e-5)" />
    <path
       style="fill:#f6df4a;fill-opacity:1;stroke:#000000;stroke-width:1.41732283;stroke-linecap:square;stroke-linejoin:miter;stroke-miterlimit:12.60000038;stroke-dasharray:none;stroke-opacity:1"
       d="m 238.50328,227.09542 -18.74389,-0.0965 2.60332,-1.41285 c 8.96261,-4.8641 18.39535,-13.89704 19.93852,-19.09345 1.07025,-3.60393 -0.49618,-6.45175 -4.4454,-8.08187 -0.73791,-0.30458 -4.38475,-1.18639 -8.10409,-1.95956 -10.9135,-2.2687 -14.85347,-3.81235 -16.29176,-6.38298 -1.16789,-2.08734 -1.88908,-5.48289 -2.17978,-10.26292 -0.24895,-4.09343 0.10053,-15.0691 0.52211,-16.39737 0.18341,-0.57788 2.08169,-0.61097 35.04412,-0.61097 l 34.85021,0 -0.16878,2.6901 c -1.10883,17.67359 -2.14242,28.41236 -3.83366,39.83076 -0.84216,5.68583 -3.20981,18.0531 -3.97053,20.73977 l -0.36856,1.30166 -8.05396,-0.0837 c -4.42969,-0.046 -16.48873,-0.12711 -26.79787,-0.18016 z m -6.9184,-42.95595 c 2.77039,-0.85031 4.73905,-3.0398 5.36734,-5.96942 0.94655,-4.41361 -2.14691,-8.7175 -6.71592,-9.34375 -4.7076,-0.64525 -8.91492,3.17437 -8.91492,8.09341 0,1.98999 1.59791,4.92194 3.34032,6.12908 2.30047,1.59375 4.27213,1.90437 6.92318,1.09068 z"
       id="path4342"
       inkscape:connector-curvature="0"
       transform="translate(0,-1.5258789e-5)" />
    <path
       style="fill:#f6df4a;fill-opacity:1;stroke:#000000;stroke-width:1.41732283;stroke-linecap:square;stroke-linejoin:miter;stroke-miterlimit:12.60000038;stroke-dasharray:none;stroke-opacity:1"
       d="m 237.11485,263.50893 c -6.87276,-4.34753 -13.27693,-8.40773 -14.23148,-9.02268 -2.18068,-1.40485 -5.81494,-2.56169 -11.01865,-3.50741 -8.38547,-1.52396 -9.10423,-2.25068 -9.45693,-9.56164 -0.11052,-2.29092 -0.27913,-4.90726 -0.37469,-5.81408 l -0.17374,-1.64877 20.92528,0.0476 c 11.5089,0.0262 27.2014,0.14332 34.87222,0.26033 l 13.94693,0.21277 -1.8809,5.69451 c -3.77527,11.42979 -9.46838,21.04807 -17.12358,28.92962 -1.25163,1.28864 -2.43609,2.33654 -2.63212,2.32867 -0.19603,-0.008 -5.97958,-3.57137 -12.85234,-7.91889 z"
       id="path4344"
       inkscape:connector-curvature="0"
       transform="translate(0,-1.5258789e-5)" />
    <path
       style="fill:#4a4af6;fill-opacity:1;stroke:#000000;stroke-width:1.41732283;stroke-linecap:square;stroke-linejoin:miter;stroke-miterlimit:12.60000038;stroke-dasharray:none;stroke-opacity:1"
       d="m 185.79769,296.23649 c -11.28246,-1.75495 -25.368,-8.13896 -36.81418,-16.68537 -2.22966,-1.6648 -3.48237,-2.81133 -3.22761,-2.95404 0.229,-0.12828 3.53885,-2.20286 7.35521,-4.61017 l 6.93885,-4.37693 0.72358,2.34996 c 0.94364,3.06468 1.52726,4.13857 3.60783,6.63864 2.05403,2.46816 6.7277,5.7047 10.51385,7.28087 1.45871,0.60727 4.33995,1.53273 6.40274,2.05658 3.65629,0.92853 3.99909,0.95246 13.64313,0.95246 9.60346,0 10.00028,-0.0274 13.57615,-0.93632 11.09798,-2.82098 18.68969,-8.73972 20.5956,-16.05699 0.2907,-1.11607 0.57614,-2.07682 0.63431,-2.13499 0.0582,-0.0582 3.34832,1.93634 7.31144,4.43224 8.33904,5.2518 8.04562,4.37361 2.72869,8.16666 -11.93795,8.51643 -24.8404,14.21356 -35.99853,15.8953 -4.30432,0.64874 -13.76575,0.63933 -17.99106,-0.0179 z"
       id="path4346"
       inkscape:connector-curvature="0"
       transform="translate(0,-1.5258789e-5)" />
  </g>
</svg>
